<?xml version="1.0" encoding="UTF-8"?>
<svg width="1600" height="1200" viewBox="0 0 1600 1200" xmlns="http://www.w3.org/2000/svg" role="img" aria-label="Abstract garden illustration">
  <defs>
    <linearGradient id="g1" x1="0" y1="0" x2="1" y2="1">
      <stop offset="0%" stop-color="#ECFDF5"/>
      <stop offset="50%" stop-color="#FFFFFF"/>
      <stop offset="100%" stop-color="#F7FEE7"/>
    </linearGradient>
    <radialGradient id="sun" cx="80%" cy="20%" r="20%">
      <stop offset="0%" stop-color="#FDE68A"/>
      <stop offset="100%" stop-color="#F59E0B" stop-opacity="0"/>
    </radialGradient>
    <linearGradient id="leaf" x1="0" y1="0" x2="0" y2="1">
      <stop offset="0%" stop-color="#10B981"/>
      <stop offset="100%" stop-color="#059669"/>
    </linearGradient>
  </defs>
  <rect width="100%" height="100%" fill="url(#g1)"/>
  <circle cx="1250" cy="180" r="180" fill="url(#sun)"/>
  <g transform="translate(0,900)">
    <rect x="0" y="200" width="1600" height="200" fill="#065F46"/>
    <path d="M0,300 C200,200 400,250 600,220 C800,190 1000,260 1200,230 C1400,200 1600,260 1600,260 L1600,400 L0,400 Z" fill="#047857"/>
    <path d="M0,320 C200,260 400,300 600,280 C800,260 1000,320 1200,300 C1400,280 1600,320 1600,320 L1600,400 L0,400 Z" fill="#10B981"/>
  </g>
  <g opacity="0.7">
    <path d="M250 950 C 230 850, 300 780, 330 720 C 360 660, 400 620, 420 600 C 380 740, 340 880, 320 980 Z" fill="url(#leaf)"/>
    <path d="M330 980 C 310 880, 380 820, 410 760 C 440 700, 480 660, 500 640 C 460 760, 420 880, 400 1000 Z" fill="#34D399"/>
    <circle cx="420" cy="610" r="8" fill="#065F46"/>
  </g>
  <g opacity="0.7">
    <path d="M1280 960 C 1260 860, 1320 800, 1350 740 C 1380 680, 1420 640, 1440 620 C 1400 740, 1360 860, 1340 980 Z" fill="url(#leaf)"/>
    <path d="M1360 1000 C 1340 900, 1400 840, 1430 780 C 1460 720, 1500 680, 1520 660 C 1480 780, 1440 900, 1420 1020 Z" fill="#34D399"/>
    <circle cx="1440" cy="630" r="8" fill="#065F46"/>
  </g>
</svg>
